<svg xmlns="http://www.w3.org/2000/svg" viewBox="0 0 24 24" width="24" height="24">
  <defs>
    <linearGradient id="brainGradient" x1="0%" y1="0%" x2="100%" y2="100%">
      <stop offset="0%" style="stop-color:#c4b5fd;stop-opacity:1" />
      <stop offset="100%" style="stop-color:#93c5fd;stop-opacity:1" />
    </linearGradient>
  </defs>
  <path fill="url(#brainGradient)" d="M12 2C7.037 2 3 6.037 3 11c0 2.05.68 3.936 1.827 5.451L12 22l7.173-5.549C20.32 14.936 21 13.05 21 11c0-4.963-4.037-9-9-9zm-3 9a1.5 1.5 0 1 1 0-3 1.5 1.5 0 0 1 0 3zm6 0a1.5 1.5 0 1 1 0-3 1.5 1.5 0 0 1 0 3z"/>
  <circle fill="white" cx="9" cy="9.5" r="0.5"/>
  <circle fill="white" cx="15" cy="9.5" r="0.5"/>
</svg>